<svg width="348" height="43" viewBox="0 0 348 43" fill="none" xmlns="http://www.w3.org/2000/svg"><path d="M8.125 1.625h1.9766V13H8.125V4.89844L3.13281 13H1.15625V1.625h1.97656v8.10938L8.125 1.625zM21.5 13h-1.9688V7.94531h-5.0859V13h-1.9765V1.625h1.9765v4.73438h5.0859V1.625H21.5V13zm10.3281-9.78125h-3.5469V13h-1.9609V3.21875h-3.5156V1.625h9.0234v1.59375zm8.1485 4.70313h-4.6719v3.50002h5.4609V13h-7.4375V1.625h7.3828v1.59375h-5.4062v3.14063h4.6719v1.5625zm4.375.85156V13H42.375V1.625h4.3516c1.2708 0 2.2786.33073 3.0234.99219.75.66146 1.125 1.53646 1.125 2.625 0 1.11458-.3672 1.98177-1.1016 2.60156-.7291.61979-1.7526.92969-3.0703.92969h-2.3515zm0-1.58594h2.375c.7031 0 1.2395-.16406 1.6093-.49219.3698-.33333.5547-.8125.5547-1.4375 0-.61458-.1875-1.10416-.5625-1.46875-.375-.36979-.8906-.55989-1.5469-.57031h-2.4296V7.1875zM61.6406 13h-1.9687V7.94531h-5.086V13h-1.9765V1.625h1.9765v4.73438h5.086V1.625h1.9687V13zm8.9922-5.07812h-4.6719v3.50002h5.461V13h-7.4375V1.625h7.3828v1.59375h-5.4063v3.14063h4.6719v1.5625zm10.7734-4.70313h-3.5468V13h-1.961V3.21875h-3.5156V1.625h9.0234v1.59375zm2.875 5.71094h-4.1015V7.39844h4.1015v1.53125zM88.5938 1.625l3.2812 8.7188 3.2734-8.7188h2.5547V13h-1.9687V9.25l.1953-5.01562L92.5703 13h-1.4141l-3.3515-8.75781L88 9.25V13h-1.9688V1.625h2.5626zm17.9612 8.7266h-4.407L101.227 13h-2.0551l4.2971-11.375h1.773L109.547 13h-2.063l-.929-2.6484zm-3.852-1.59379H106l-1.648-4.71875-1.649 4.71875zm15.414-5.53906h-5.25V13h-1.969V1.625h7.219v1.59375zm6.406 7.13285h-4.406L119.195 13h-2.054l4.297-11.375h1.773L127.516 13h-2.063l-.93-2.6484zm-3.851-1.59379h3.297l-1.649-4.71875-1.648 4.71875zM134.5 4.72656c0-.51041-.193-.91666-.578-1.21875-.386-.30208-.909-.45312-1.57-.45312-.568 0-1.042.15104-1.422.45312-.381.29688-.571.68229-.571 1.15625h-1.968c0-.61979.171-1.17187.515-1.65625.344-.48437.821-.85937 1.43-1.125.609-.27083 1.281-.40625 2.016-.40625 1.302 0 2.312.28386 3.031.85156.724.56771 1.086 1.36198 1.086 2.38282 0 .51562-.157.98958-.469 1.42187-.312.43229-.75.77344-1.312 1.02344.635.21875 1.119.55208 1.453 1 .338.44271.507.99479.507 1.65625 0 1.0208-.39 1.8333-1.171 2.4375-.782.599-1.823.8984-3.125.8984-.803 0-1.529-.1432-2.18-.4296-.646-.2865-1.133-.6771-1.461-1.1719-.323-.4948-.484-1.0625-.484-1.70315h1.968c0 .48955.203.90365.61 1.24215.406.3334.922.5 1.547.5.697 0 1.257-.164 1.679-.4921.427-.3282.641-.7553.641-1.2813 0-.64062-.188-1.10417-.563-1.39062-.369-.29167-.914-.4375-1.632-.4375h-1.336v-1.5625h1.265c1.396 0 2.094-.56511 2.094-1.69532zM145.453 1.625h1.977V13h-1.977V4.89844L140.461 13h-1.977V1.625h1.977v8.10938l4.992-8.10938zM158.828 13h-1.969V7.94531h-5.086V13h-1.976V1.625h1.976v4.73438h5.086V1.625h1.969V13zM1.02344 26.8203l.5-.6172c.5625-.7291.88281-1.8229.96094-3.2812l.13281-3.375H8.0625v7.2734h1.08594v3.6641H7.70312V28H1.80469v2.4844H.359375l.007813-3.6641h.656252zm1.71094 0h3.88281v-5.9375H4.01562l-.08593 2.0156c-.08854 1.6823-.48698 2.9896-1.19531 3.9219zm14.94532-7.2734V28h-1.4531v-7.2578h-2.875l-.1719 3.164c-.0938 1.4532-.3386 2.4922-.7344 3.1172-.3906.625-1.013.9506-1.8672.9766H10v-1.2734l.4141-.0313c.4687-.0521.8047-.3229 1.0078-.8125.2031-.4896.3333-1.3958.3906-2.7187l.1563-3.6172h5.7109zm8.7812 0V28h-1.4531v-3.2891h-2.1797L20.8359 28h-1.5625l2.125-3.5078c-.5416-.1979-.9583-.5026-1.25-.9141-.2864-.4166-.4296-.901-.4296-1.4531 0-.7708.289-1.3906.8671-1.8594.5782-.4739 1.3516-.7135 2.3203-.7187h3.5547zm-5.289 2.5937c0 .4115.1406.7448.4219 1 .2812.25.6536.3776 1.1171.3828h2.2969v-2.8046h-2.0781c-.5365 0-.9636.1328-1.2813.3984-.3177.2604-.4765.6016-.4765 1.0234zM39.6641 28h-1.4453v-7.2578h-3.8907V28H32.875v-8.4531h6.7891V28zm9.4609-4.1328c0 1.2864-.2943 2.3229-.8828 3.1094-.5886.7864-1.3854 1.1796-2.3906 1.1796-1.0261 0-1.8334-.3255-2.4219-.9765V31.25h-1.4453V19.5469h1.3203l.0703.9375c.5885-.7292 1.4062-1.0938 2.4531-1.0938 1.0157 0 1.8177.3828 2.4063 1.1485.5937.7656.8906 1.8307.8906 3.1953v.1328zm-1.4453-.1641c0-.9531-.2031-1.7057-.6094-2.2578-.4062-.5521-.9635-.8281-1.6719-.8281-.875 0-1.5312.388-1.9687 1.164v4.0391c.4323.7708 1.0937 1.1563 1.9844 1.1563.6927 0 1.2421-.2735 1.6484-.8204.4115-.552.6172-1.3697.6172-2.4531zm2.9062-.0078c0-.8281.1615-1.5729.4844-2.2344.3281-.6614.7813-1.1718 1.3594-1.5312.5833-.3594 1.2474-.5391 1.9922-.5391 1.151 0 2.0807.3985 2.789 1.1953.7136.7969 1.0703 1.8568 1.0703 3.1797v.1016c0 .8229-.1588 1.5625-.4765 2.2187-.3125.6511-.763 1.1589-1.3516 1.5235-.5833.3646-1.2552.5468-2.0156.5468-1.1458 0-2.0755-.3984-2.7891-1.1953-.7083-.7968-1.0625-1.8515-1.0625-3.164v-.1016zm1.4532.1719c0 .9375.2161 1.6901.6484 2.2578.4375.5677 1.0208.8516 1.75.8516.7344 0 1.3177-.2865 1.75-.8594.4323-.5781.6484-1.3854.6484-2.4219 0-.9271-.2213-1.6771-.664-2.25-.4375-.5781-1.0209-.8672-1.75-.8672-.7136 0-1.2891.2839-1.7266.8516-.4375.5677-.6562 1.3802-.6562 2.4375zm7.7421.0625c0-1.4115.2735-2.5208.8204-3.3281.5468-.8073 1.2968-1.211 2.25-1.211.4427 0 .8307.0755 1.164.2266V16h1.4453v3.6641c.3646-.1823.7917-.2735 1.2813-.2735.9583 0 1.7109.4037 2.2578 1.211.5469.8073.8203 1.9713.8203 3.4922 0 1.2447-.2734 2.2343-.8203 2.9687-.5417.7344-1.2891 1.1016-2.2422 1.1016-.5052 0-.9375-.0834-1.2969-.25V31.25h-1.4453v-3.3125c-.3437.151-.737.2266-1.1797.2266-.9479 0-1.6953-.3672-2.2421-1.1016-.5417-.7344-.8126-1.7396-.8126-3.0156v-.1172zm8.5938 0c0-1.0625-.1823-1.8854-.5469-2.4688-.3646-.5885-.8672-.8828-1.5078-.8828-.3281 0-.6146.0521-.8594.1563v6.1172c.2344.0885.5261.1328.875.1328.6459 0 1.1459-.25 1.5-.75.3594-.5.5391-1.2683.5391-2.3047zm-7.1484.1641c0 .9479.1692 1.6666.5078 2.1562.3385.4896.8255.7344 1.4609.7344.3021 0 .5755-.0469.8203-.1406v-6.1329c-.2187-.0885-.487-.1328-.8047-.1328-.6354 0-1.125.2839-1.4687.8516-.3438.5677-.5156 1.4557-.5156 2.6641zm13.9843 4.0624c-1.1458 0-2.0781-.375-2.7968-1.125-.7188-.7552-1.0782-1.763-1.0782-3.0234v-.2656c0-.8386.1589-1.586.4766-2.2422.3229-.6615.7708-1.1771 1.3437-1.5469.5782-.375 1.2032-.5625 1.875-.5625 1.099 0 1.9532.362 2.5626 1.086.6093.7239.914 1.7604.914 3.1093v.6016h-5.7266c.0209.8333.2631 1.5078.7266 2.0234.4688.5105 1.0625.7657 1.7813.7657.5104 0 .9427-.1042 1.2968-.3125.3542-.2084.6641-.4844.9297-.8282l.8828.6875c-.7083 1.0886-1.7708 1.6328-3.1875 1.6328zm-.1797-7.5781c-.5833 0-1.0729.2136-1.4687.6407-.3958.4218-.6406 1.0156-.7344 1.7812h4.2344v-.1094c-.0417-.7344-.2396-1.3021-.5937-1.7031-.3542-.4063-.8334-.6094-1.4376-.6094zm8.5469 6.3985c.5157 0 .9662-.1563 1.3516-.4688.3854-.3125.5989-.7031.6406-1.1719h1.3672c-.026.4844-.1927.9453-.5 1.3829-.3073.4374-.7187.7864-1.2344 1.0468-.5104.2604-1.0521.3906-1.625.3906-1.151 0-2.0677-.3828-2.75-1.1484-.6771-.7708-1.0156-1.8229-1.0156-3.1562v-.2422c0-.8229.151-1.5547.4531-2.1953.3021-.6407.7344-1.1381 1.2969-1.4922.5677-.3542 1.237-.5313 2.0078-.5313.9479 0 1.7344.2839 2.3594.8516.6302.5677.9661 1.3047 1.0078 2.2109h-1.3672c-.0417-.5469-.25-.9948-.625-1.3437-.3698-.3542-.8281-.5313-1.375-.5313-.7344 0-1.3047.2657-1.7109.7969-.4011.526-.6016 1.2891-.6016 2.2891v.2734c0 .974.2005 1.724.6016 2.25.401.526.9739.7891 1.7187.7891zm8.375 0c.5157 0 .9662-.1563 1.3516-.4688.3854-.3125.5989-.7031.6406-1.1719h1.3672c-.026.4844-.1927.9453-.5 1.3829-.3073.4374-.7187.7864-1.2344 1.0468-.5104.2604-1.0521.3906-1.625.3906-1.151 0-2.0677-.3828-2.75-1.1484-.6771-.7708-1.0156-1.8229-1.0156-3.1562v-.2422c0-.8229.151-1.5547.4531-2.1953.3021-.6407.7344-1.1381 1.2969-1.4922.5677-.3542 1.237-.5313 2.0078-.5313.9479 0 1.7344.2839 2.3594.8516.6302.5677.9661 1.3047 1.0078 2.2109h-1.3672c-.0417-.5469-.25-.9948-.625-1.3437-.3698-.3542-.8281-.5313-1.375-.5313-.7344 0-1.3047.2657-1.7109.7969-.4011.526-.6016 1.2891-.6016 2.2891v.2734c0 .974.2005 1.724.6016 2.25.401.526.9739.7891 1.7187.7891zm10.4529-7.4297h1.446V28h-1.446v-6.1641L98.5078 28h-1.4453v-8.4531h1.4453v6.1719l3.8982-6.1719zm3.383 4.1484c0-.8281.162-1.5729.484-2.2344.329-.6614.782-1.1718 1.36-1.5312.583-.3594 1.247-.5391 1.992-.5391 1.151 0 2.081.3985 2.789 1.1953.714.7969 1.07 1.8568 1.07 3.1797v.1016c0 .8229-.158 1.5625-.476 2.2187-.313.6511-.763 1.1589-1.352 1.5235-.583.3646-1.255.5468-2.015.5468-1.146 0-2.076-.3984-2.789-1.1953-.709-.7968-1.063-1.8515-1.063-3.164v-.1016zm1.453.1719c0 .9375.216 1.6901.649 2.2578.437.5677 1.02.8516 1.75.8516.734 0 1.317-.2865 1.75-.8594.432-.5781.648-1.3854.648-2.4219 0-.9271-.221-1.6771-.664-2.25-.437-.5781-1.021-.8672-1.75-.8672-.714 0-1.289.2839-1.727.8516-.437.5677-.656 1.3802-.656 2.4375zM122.203 28h-1.445v-3.6094h-3.883V28h-1.453v-8.4531h1.453v3.664h3.883v-3.664h1.445V28zm7.547 0c-.083-.1667-.151-.4635-.203-.8906-.672.6979-1.474 1.0468-2.406 1.0468-.834 0-1.519-.2343-2.055-.7031-.531-.4739-.797-1.0729-.797-1.7969 0-.8802.333-1.5624 1-2.0468.672-.4896 1.615-.7344 2.828-.7344h1.406v-.6641c0-.5052-.151-.9062-.453-1.2031-.302-.3021-.747-.4531-1.336-.4531-.515 0-.948.1302-1.296.3906-.349.2604-.524.5755-.524.9453h-1.453c0-.4218.148-.8281.445-1.2187.302-.3959.709-.7084 1.219-.9375.516-.2292 1.081-.3438 1.695-.3438.974 0 1.737.2448 2.289.7344.552.4844.839 1.1536.86 2.0078v3.8906c0 .7761.099 1.3933.297 1.8516V28h-1.516zm-2.398-1.1016c.453 0 .882-.1172 1.289-.3515.406-.2344.7-.5391.882-.9141v-1.7344h-1.132c-1.771 0-2.657.5183-2.657 1.5547 0 .4531.151.8073.454 1.0625.302.2552.69.3828 1.164.3828zm12.812-7.3515V28h-1.453v-7.2578h-2.875l-.172 3.164c-.094 1.4532-.338 2.4922-.734 3.1172-.391.625-1.013.9506-1.868.9766h-.578v-1.2734l.414-.0313c.469-.0521.805-.3229 1.008-.8125.203-.4896.334-1.3958.391-2.7187l.156-3.6172h5.711zm1.938 4.1484c0-.8281.161-1.5729.484-2.2344.328-.6614.781-1.1718 1.359-1.5312.584-.3594 1.248-.5391 1.993-.5391 1.151 0 2.08.3985 2.789 1.1953.713.7969 1.07 1.8568 1.07 3.1797v.1016c0 .8229-.159 1.5625-.477 2.2187-.312.6511-.763 1.1589-1.351 1.5235-.584.3646-1.255.5468-2.016.5468-1.146 0-2.075-.3984-2.789-1.1953-.708-.7968-1.062-1.8515-1.062-3.164v-.1016zm1.453.1719c0 .9375.216 1.6901.648 2.2578.438.5677 1.021.8516 1.75.8516.735 0 1.318-.2865 1.75-.8594.432-.5781.649-1.3854.649-2.4219 0-.9271-.222-1.6771-.664-2.25-.438-.5781-1.021-.8672-1.75-.8672-.714 0-1.29.2839-1.727.8516-.438.5677-.656 1.3802-.656 2.4375zM151.742 28v-8.4531h3.297c1.125 0 1.987.1979 2.586.5937.604.3906.906.9662.906 1.7266 0 .3906-.117.7448-.351 1.0625-.235.3125-.581.5521-1.039.7187.51.1198.919.3542 1.226.7032.313.3489.469.7656.469 1.25 0 .776-.287 1.3698-.859 1.7812-.568.4115-1.373.6172-2.415.6172h-3.82zm1.446-3.7109v2.5468h2.39c.604 0 1.055-.1119 1.352-.3359.302-.224.453-.5391.453-.9453 0-.8438-.62-1.2656-1.86-1.2656h-2.335zm0-1.1563h1.867c1.354 0 2.031-.3958 2.031-1.1875 0-.7917-.641-1.2005-1.922-1.2265h-1.976v2.414z" fill="#585757"/></svg>