<svg width="234" height="14" viewBox="0 0 234 14" fill="none" xmlns="http://www.w3.org/2000/svg"><path d="M111.076 11h-.721V3.08398h-4.828V11h-.72V2.46875h6.269V11zm1.647-3.26367c0-.60938.117-1.15821.351-1.64649.238-.48828.572-.86718 1.002-1.13672.434-.27343.924-.41015 1.471-.41015.844 0 1.527.29687 2.051.89062.523.58985.785 1.37305.785 2.34961v.14649c0 .61328-.119 1.16601-.358 1.6582-.234.48831-.566.86521-.996 1.13091-.429.2656-.92.3984-1.47.3984-.84 0-1.524-.2949-2.051-.8848-.524-.59373-.785-1.37888-.785-2.35545v-.14062zm.703.19336c0 .75781.195 1.38086.586 1.86914.394.48437.91.72657 1.547.72657.632 0 1.144-.2422 1.535-.72657.394-.48828.592-1.13086.592-1.92774v-.13476c0-.48438-.09-.92774-.27-1.33008-.18-.40234-.432-.71289-.756-.93164-.324-.22266-.695-.33399-1.113-.33399-.625 0-1.135.2461-1.529.73829-.395.48828-.592 1.1289-.592 1.92187v.12891zm8.754 2.59571c.488 0 .896-.1367 1.224-.4102.332-.27731.512-.63473.539-1.07223h.674c-.019.38672-.14.74023-.363 1.06053-.223.3164-.52.5645-.891.7442-.367.1796-.761.2695-1.183.2695-.832 0-1.492-.2891-1.981-.8672-.484-.57812-.726-1.35547-.726-2.33203v-.21094c0-.625.109-1.17773.328-1.6582.219-.48047.531-.85156.937-1.11328.41-.26172.889-.39258 1.436-.39258.695 0 1.267.20703 1.717.62109.453.41406.695.95899.726 1.63477h-.674c-.031-.4961-.211-.89649-.539-1.20117-.324-.30469-.734-.45704-1.23-.45704-.633 0-1.125.22852-1.477.68555-.347.45703-.521 1.09766-.521 1.92188v.20507c0 .8086.174 1.43946.521 1.89258.352.4531.846.6797 1.483.6797zm7.353-.4746l2.52-5.39064h.867V11h-.703V5.79688L129.779 11h-.498l-2.484-5.32031V11h-.697V4.66016h.92l2.513 5.39064zm4.881-2.31447c0-.60938.117-1.15821.352-1.64649.238-.48828.572-.86718 1.002-1.13672.433-.27343.923-.41015 1.47-.41015.844 0 1.528.29687 2.051.89062.523.58985.785 1.37305.785 2.34961v.14649c0 .61328-.119 1.16601-.357 1.6582-.235.48831-.567.86521-.996 1.13091-.43.2656-.92.3984-1.471.3984-.84 0-1.523-.2949-2.051-.8848-.523-.59373-.785-1.37888-.785-2.35545v-.14062zm.703.19336c0 .75781.195 1.38086.586 1.86914.395.48437.91.72657 1.547.72657.633 0 1.145-.2422 1.535-.72657.395-.48828.592-1.13086.592-1.92774v-.13476c0-.48438-.09-.92774-.27-1.33008-.179-.40234-.431-.71289-.755-.93164-.325-.22266-.696-.33399-1.114-.33399-.625 0-1.134.2461-1.529.73829-.395.48828-.592 1.1289-.592 1.92187v.12891zm10.834-2.67188h-2.308V11h-.704V5.25781h-2.22v-.59765h5.232v.59765zm6.252 2.63672c0 .98828-.219 1.77344-.656 2.35547-.438.5781-1.024.8672-1.758.8672-.867 0-1.531-.3047-1.992-.9141v3.2344h-.697V4.66016h.65l.035.89648c.457-.67578 1.119-1.01367 1.986-1.01367.758 0 1.352.28711 1.782.86133.433.57422.65 1.37109.65 2.39062v.09961zm-.703-.12305c0-.80859-.166-1.44726-.498-1.91601-.332-.46875-.795-.70313-1.389-.70313-.429 0-.799.10352-1.107.31055-.309.20703-.545.50781-.709.90234v3.04102c.168.36328.408.64065.721.83205.312.1914.681.2871 1.107.2871.59 0 1.049-.2344 1.377-.70313.332-.47266.498-1.15625.498-2.05079zm4.717 3.34572c-.539 0-1.028-.1328-1.465-.3984-.434-.2657-.772-.6348-1.014-1.10747-.242-.47656-.363-1.00977-.363-1.59961v-.25195c0-.60938.117-1.15821.352-1.64649.238-.48828.568-.87109.99-1.14844.422-.28125.879-.42187 1.371-.42187.769 0 1.379.26367 1.828.79101.453.52344.68 1.24024.68 2.1504v.39257h-4.524v.13477c0 .71875.205 1.31836.616 1.79883.414.47655.933.71485 1.558.71485.375 0 .705-.0684.99-.2051.289-.1367.551-.35546.785-.65624l.44.33399c-.516.74605-1.264 1.11915-2.244 1.11915zm-.129-5.97658c-.527 0-.973.19336-1.336.58008-.359.38672-.578.90625-.656 1.5586h3.802v-.07618c-.019-.60937-.193-1.10546-.521-1.48828-.328-.38281-.758-.57422-1.289-.57422zm8.355.11719h-2.308V11h-.703V5.25781h-2.221v-.59765h5.232v.59765zm1.928 1.70508h1.828c.469 0 .879.08594 1.231.25781.355.16797.623.40235.802.70313.184.30078.276.65039.276 1.04883 0 .61328-.211 1.10544-.633 1.47654-.418.3672-.984.5508-1.699.5508h-2.502V4.66016h.697v2.30273zm0 .59766v2.84765h1.817c.503 0 .898-.127 1.183-.3809.289-.25386.434-.60152.434-1.04292 0-.42188-.141-.76172-.422-1.01954-.278-.26172-.658-.39648-1.143-.40429h-1.869zM175.014 11V4.66016h2.326c.805 0 1.422.14453 1.851.43359.43.28516.645.70508.645 1.25977 0 .3164-.096.5996-.287.8496-.192.2461-.471.42579-.838.53907.414.07812.746.25586.996.5332.254.27734.381.59961.381.9668 0 .55859-.207.99221-.621 1.30081-.41.3047-.992.457-1.746.457h-2.707zm.697-2.91797v2.33207h2.033c.527 0 .934-.1016 1.219-.3047.285-.20315.428-.49612.428-.87893 0-.35156-.143-.63086-.428-.83789-.285-.20703-.692-.31055-1.219-.31055h-2.033zm0-.58594h1.775c1.102-.01562 1.653-.39062 1.653-1.125 0-.38671-.153-.66797-.457-.84375-.301-.17968-.748-.26953-1.342-.26953h-1.629v2.23828zm11.414-2.41406c.805 0 1.457.26367 1.957.79102.5.52343.75 1.21875.75 2.08593v.15235c0 .57422-.115 1.09179-.346 1.55273-.226.45704-.554.81444-.984 1.07224-.426.2539-.916.3809-1.471.3809-.836 0-1.513-.2774-2.033-.832-.516-.55864-.773-1.30278-.773-2.23247v-.5625c0-1.3125.25-2.36132.75-3.14648.5-.78516 1.211-1.25391 2.132-1.40625.582-.09375.991-.2207 1.225-.38086.238-.16016.357-.37891.357-.65625h.604c0 .32813-.068.59961-.205.81445-.137.21485-.342.38868-.615.52149-.274.1289-.692.23828-1.254.32812-.645.10157-1.164.37696-1.559.82617-.39.44532-.644 1.04297-.762 1.79297.25-.32812.563-.59375.938-.79687.379-.20313.809-.30469 1.289-.30469zm-2.197 2.88281v.14649c0 .71484.193 1.29687.58 1.74609.387.44528.894.66798 1.523.66798.633 0 1.141-.2246 1.524-.67384.383-.45312.574-1.04687.574-1.78125v-.15234c0-.66016-.195-1.19922-.586-1.61719-.387-.41797-.895-.62695-1.523-.62695-.629 0-1.135.21289-1.518.63867-.383.42188-.574.97266-.574 1.65234zm11.244-.07031c0 .98828-.219 1.77344-.656 2.35547-.438.5781-1.024.8672-1.758.8672-.867 0-1.531-.3047-1.992-.9141v3.2344h-.698V4.66016h.651l.035.89648c.457-.67578 1.119-1.01367 1.986-1.01367.758 0 1.352.28711 1.781.86133.434.57422.651 1.37109.651 2.39062v.09961zm-.703-.12305c0-.80859-.166-1.44726-.498-1.91601-.332-.46875-.795-.70313-1.389-.70313-.43 0-.799.10352-1.107.31055-.309.20703-.545.50781-.709.90234v3.04102c.168.36328.408.64065.72.83205.313.1914.682.2871 1.108.2871.59 0 1.049-.2344 1.377-.70313.332-.47266.498-1.15625.498-2.05079zM201.732 11c-.07-.1992-.115-.4941-.134-.8848-.246.3203-.561.5684-.944.7442-.379.1718-.781.2578-1.207.2578-.609 0-1.103-.1699-1.482-.5098-.375-.3398-.563-.76951-.563-1.28904 0-.61719.256-1.10547.768-1.46484.516-.35938 1.232-.53907 2.15-.53907h1.272v-.7207c0-.45313-.141-.80859-.422-1.06641-.277-.26172-.684-.39257-1.219-.39257-.488 0-.892.125-1.213.375-.32.25-.48.55078-.48.90234l-.703-.00586c0-.50391.234-.93945.703-1.30664.469-.37109 1.045-.55664 1.728-.55664.707 0 1.264.17773 1.67.5332.41.35156.621.84375.633 1.47656v3c0 .61327.065 1.07227.193 1.37697V11h-.75zm-2.203-.5039c.469 0 .887-.1133 1.254-.3399.371-.22651.641-.52925.809-.90815V7.85352h-1.254c-.699.00781-1.246.13671-1.641.38671-.394.2461-.592.58594-.592 1.01954 0 .35546.131.65039.393.88473.266.2344.609.3516 1.031.3516zm6.551-.50391l1.852-5.33203h.756l-2.708 7.41794-.14.3281c-.348.7696-.885 1.1543-1.611 1.1543-.168 0-.348-.0273-.54-.082l-.005-.5801.363.0352c.344 0 .621-.0859.832-.2578.215-.168.396-.459.545-.8731l.31-.8554-2.39-6.28714h.767l1.969 5.33203zm7.412-3.65625c0-.38282-.142-.67774-.428-.88477-.285-.20703-.677-.31055-1.177-.31055-.453 0-.842.11719-1.166.35157-.321.23047-.481.52343-.481.8789h-.697c0-.52734.225-.96289.674-1.30664.453-.34375 1.01-.51562 1.67-.51562.726 0 1.293.15625 1.699.46875.406.3125.609.75586.609 1.33008 0 .30468-.093.58007-.281.82617-.187.24609-.461.4375-.82.57422.812.22265 1.218.72656 1.218 1.51172 0 .57031-.22 1.02143-.662 1.35353-.441.332-1.027.498-1.757.498-.707 0-1.293-.1777-1.758-.5332-.465-.3554-.697-.82029-.697-1.39451h.703c0 .38282.168.70313.504.96091.339.2539.755.3809 1.248.3809.535 0 .953-.1113 1.253-.334.305-.22656.458-.5332.458-.91992 0-.42578-.139-.73242-.416-.91992-.278-.1875-.702-.28125-1.272-.28125h-.967v-.60937h1.084c.973-.02344 1.459-.39844 1.459-1.125zm4.822 4.78126c-.539 0-1.027-.1328-1.464-.3984-.434-.2657-.772-.6348-1.014-1.10747-.242-.47656-.363-1.00977-.363-1.59961v-.25195c0-.60938.117-1.15821.351-1.64649.238-.48828.569-.87109.99-1.14844.422-.28125.879-.42187 1.372-.42187.769 0 1.378.26367 1.828.79101.453.52344.679 1.24024.679 2.1504v.39257h-4.523v.13477c0 .71875.205 1.31836.615 1.79883.414.47655.934.71485 1.559.71485.375 0 .705-.0684.99-.2051.289-.1367.551-.35546.785-.65624l.44.33399c-.516.74605-1.264 1.11915-2.245 1.11915zm-.128-5.97658c-.528 0-.973.19336-1.336.58008-.36.38672-.579.90625-.657 1.5586h3.803v-.07618c-.019-.60937-.193-1.10546-.521-1.48828-.329-.38281-.758-.57422-1.289-.57422zm8.97 2.75391c0 .98828-.218 1.77344-.656 2.35547-.438.5781-1.023.8672-1.758.8672-.867 0-1.531-.3047-1.992-.9141v3.2344h-.697V4.66016h.65l.035.89648c.457-.67578 1.119-1.01367 1.987-1.01367.757 0 1.351.28711 1.781.86133.433.57422.65 1.37109.65 2.39062v.09961zm-.703-.12305c0-.80859-.166-1.44726-.498-1.91601-.332-.46875-.795-.70313-1.389-.70313-.429 0-.798.10352-1.107.31055-.309.20703-.545.50781-.709.90234v3.04102c.168.36328.408.64065.721.83205.312.1914.681.2871 1.107.2871.59 0 1.049-.2344 1.377-.70313.332-.47266.498-1.15625.498-2.05079zm4.717 3.34572c-.539 0-1.027-.1328-1.465-.3984-.434-.2657-.771-.6348-1.014-1.10747-.242-.47656-.363-1.00977-.363-1.59961v-.25195c0-.60938.117-1.15821.352-1.64649.238-.48828.568-.87109.99-1.14844.422-.28125.879-.42187 1.371-.42187.77 0 1.379.26367 1.828.79101.453.52344.68 1.24024.68 2.1504v.39257h-4.524v.13477c0 .71875.205 1.31836.616 1.79883.414.47655.933.71485 1.558.71485.375 0 .705-.0684.99-.2051.29-.1367.551-.35546.786-.65624l.439.33399c-.516.74605-1.264 1.11915-2.244 1.11915zm-.129-5.97658c-.527 0-.973.19336-1.336.58008-.359.38672-.578.90625-.656 1.5586h3.803v-.07618c-.02-.60937-.194-1.10546-.522-1.48828-.328-.38281-.758-.57422-1.289-.57422z" fill="#787373"/><path d="M103.699 12.1719H234v.5859H103.699v-.5859z" fill="#787373"/></svg>